<svg xmlns="http://www.w3.org/2000/svg" viewBox="0 0 512 512">
    <rect width="512" height="512" rx="115" fill="black" />
    <path fill="white" d="M377.77 237.37c-2.46-.82-4.95-1.6-7.46-2.33-4.38-90.14-54.13-141.77-136.89-142.29-.27-.002-.54-.002-.81-.002-49.64 0-91.07 20.78-116.52 58.51l41.1 28.22c18.79-27.12 47.08-41.47 84.87-41.47.27 0 .54 0 .81.002 32.78.21 57.58 9.7 73.78 28.21 11.69 13.6 19.56 32.5 23.56 56.45-10.42-1.77-21.67-2.75-33.69-2.75-3.28 0-6.53.06-9.73.19-67.97 3.79-111.75 43.14-108.97 97.64 1.42 27.62 15.35 51.4 37.49 66.86 18.91 13.13 43.42 19.72 68.94 18.35 33.56-1.86 59.89-14.44 78.24-37.39 14.03-17.64 22.97-40.36 26.75-68.13 11.99 7.2 20.9 17.02 26.06 29.47 9.14 22.55 9.69 58.47-23.31 91.42-29.11 29.11-64.19 41.95-117.17 41.9-58.9-.07-103.38-19.37-132.21-57.54-26.23-34.22-39.95-84.35-40.56-149.06-.62-65.51 13.41-115.27 41.7-147.94 30.04-34.46 76.31-51.83 137.53-51.61l.54.001c57.01.38 99.56 18.64 126.42 54.34 17.62 23.22 29.85 55.14 36.63 95.93l47.03-7.71c-8.32-49.74-24.93-88.59-49.86-118.64C466.93 66.88 413.42 40.73 345.43 40.27l-.54-.002C271.01 39.8 209.25 63.9 165.93 115.54c-40.5 47.94-61.11 116.58-60.13 197.96.99 79.1 23.08 143.79 64.88 190.5C215.57 553.72 277.91 580 345.45 580c64.79.08 115.65-18.8 155.37-58.51 47.68-47.6 46.48-106.38 30.62-142.37-11.36-26.6-34.02-48.57-69.34-68.38l-84.33 6.63zm-91.38 121.73c-34.7 1.91-57.1-15.78-58.27-38.76-1.19-23.48 18.25-45.57 58.6-47.84 3.97-.22 7.87-.33 11.7-.33 8.93 0 17.4.67 25.35 1.92-3.14 63.27-18.74 83.57-37.38 85.01z"/>
</svg>
